<svg width="18" height="18" viewBox="0 0 18 18" fill="none" xmlns="http://www.w3.org/2000/svg">
<path fill-rule="evenodd" clip-rule="evenodd" d="M17.64 9.20456C17.64 8.1332 16.6971 7.36365 15.6257 7.36365H10.7407C9.77933 7.36365 9 8.14298 9 9.10433C9 10.0657 9.77933 10.845 10.7407 10.845H11.5264C12.7314 10.845 13.6417 12.0055 12.8275 12.8939C12.773 12.9534 12.7166 13.0115 12.6583 13.0681C12.3061 13.4103 12.0477 13.8562 12.0477 14.3474C12.0477 15.1604 12.7068 15.8196 13.5199 15.8196H14.1399C14.6649 15.8196 15.18 15.6302 15.5269 15.2361C16.8757 13.7036 17.64 11.6229 17.64 9.20456Z" fill="#4285F4"/>
<path fill-rule="evenodd" clip-rule="evenodd" d="M9 18C10.5267 18 11.8984 17.6818 13.0765 17.1045C14.1506 16.5781 14.0962 15.1517 13.1514 14.4182C12.4925 13.9066 11.5861 13.9095 10.7901 14.159C10.2501 14.3282 9.65105 14.4204 9 14.4204C7.0984 14.4204 5.43372 13.3785 4.49516 11.8495C4.10161 11.2083 3.45651 10.71 2.70421 10.71C1.7394 10.71 0.957275 11.4921 0.957275 12.4569V12.5942C0.957275 12.8885 1.0232 13.1805 1.16847 13.4364C2.71544 16.1621 5.6415 18 9 18Z" fill="#34A853"/>
<path fill-rule="evenodd" clip-rule="evenodd" d="M2.85728 11.5683C3.52036 11.0541 3.74777 10.177 3.69296 9.33971C3.68559 9.22716 3.68182 9.11385 3.68182 8.99995C3.68182 8.51947 3.74892 8.04973 3.87008 7.6016C3.92635 7.39344 3.96409 7.18001 3.96409 6.96438V6.81751C3.96409 5.7906 3.13162 4.95813 2.10471 4.95813C1.40133 4.95813 0.742341 5.35 0.509036 6.01356C0.180377 6.94833 0 7.95398 0 8.99995C0 9.60733 0.0608227 10.2011 0.176183 10.7753C0.421442 11.9961 1.87333 12.3314 2.85728 11.5683Z" fill="#FBBC05"/>
<path fill-rule="evenodd" clip-rule="evenodd" d="M9 3.57955C9.69926 3.57955 10.3607 3.70671 10.9668 3.95862C11.8767 4.33681 12.9971 4.36877 13.6939 3.67202C14.4196 2.94634 14.4057 1.7425 13.5245 1.21646C12.231 0.44433 10.7123 0 9 0C5.98307 0 3.3151 1.48306 1.68227 3.76043C1.20793 4.42201 1.4214 5.31811 2.06468 5.81699C2.99223 6.53631 4.38318 6.097 5.18978 5.24426C6.15435 4.22451 7.50384 3.57955 9 3.57955Z" fill="#EA4335"/>
</svg>
