<?xml version="1.0" encoding="UTF-8" standalone="no"?>
<!-- Created with Inkscape (http://www.inkscape.org/) -->

<svg
   version="1.1"
   id="svg2"
   width="734.97382"
   height="733.80505"
   viewBox="0 0 734.97382 733.80505"
   xmlns="http://www.w3.org/2000/svg"
   xmlns:svg="http://www.w3.org/2000/svg">
  <defs
     id="defs6" />
  <g
     id="g8"
     transform="translate(-1.0114551,-39.139245)">
    <path
       style="fill:#000000"
       d="M 19.41573,771.58754 C 9.815892,768.5821 4.202291,762.29626 2.102305,752.20078 0.502686,744.51077 0.717314,697.10923 2.386206,689.5 c 2.436797,-11.11046 8.37375,-17.39732 18.47475,-19.5636 2.984104,-0.63998 16.669604,-0.92767 35.25812,-0.74119 L 86.5,669.5 l 5.66684,2.78286 c 6.69135,3.28598 11.00548,9.22179 12.73086,17.51636 1.58845,7.63635 1.38452,55.05926 -0.26991,62.76408 -2.21982,10.33791 -8.57263,17.26196 -17.78745,19.38692 -6.58412,1.51831 -62.375009,1.21821 -67.42461,-0.36268 z m 158.34155,0.32915 C 169.01326,769.85514 162.0856,762.83621 160.07356,754 c -1.39068,-6.10739 -1.37569,-59.49277 0.0185,-65.99377 1.42258,-6.63322 6.17624,-12.75357 12.38961,-15.95163 l 4.96322,-2.5546 h 33.02755 c 37.32448,0 38.22012,0.13995 45.1324,7.05223 7.133,7.13299 7.57815,10.01678 7.20959,46.70554 l -0.31445,31.30256 -2.5546,4.96061 c -3.19876,6.21145 -9.31991,10.96473 -15.95163,12.38698 -6.092,1.3065 -60.70153,1.31373 -66.23649,0.009 z m 156.65845,-0.32915 c -9.59984,-3.00544 -15.21344,-9.29128 -17.31343,-19.38676 -1.59961,-7.69001 -1.38499,-55.09155 0.28391,-62.70078 2.43679,-11.11046 8.37375,-17.39732 18.47475,-19.5636 2.9841,-0.63998 16.6696,-0.92767 35.25812,-0.74119 L 401.5,669.5 l 5.66684,2.78286 c 6.69135,3.28598 11.00548,9.22179 12.73086,17.51636 1.58845,7.63635 1.38452,55.05926 -0.26991,62.76408 -2.21982,10.33791 -8.57263,17.26196 -17.78745,19.38692 -6.58412,1.51831 -62.37501,1.21821 -67.42461,-0.36268 z m 158.34155,0.32915 C 484.01326,769.85514 477.0856,762.83621 475.07356,754 c -1.39068,-6.10739 -1.37569,-59.49277 0.0185,-65.99377 1.42258,-6.63322 6.17624,-12.75357 12.38961,-15.95163 l 4.96322,-2.5546 h 33.02755 c 37.32448,0 38.22012,0.13995 45.1324,7.05223 7.133,7.13299 7.57815,10.01678 7.20959,46.70554 l -0.31445,31.30256 -2.5546,4.96061 c -3.19876,6.21145 -9.31991,10.96473 -15.95163,12.38698 -6.092,1.3065 -60.70153,1.31373 -66.23649,0.009 z m 156.65845,-0.32915 c -9.59984,-3.00544 -15.21344,-9.29128 -17.31343,-19.38676 -1.59961,-7.69001 -1.38499,-55.09155 0.28391,-62.70078 2.43679,-11.11046 8.37375,-17.39732 18.47475,-19.5636 2.9841,-0.63998 16.6696,-0.92767 35.25812,-0.74119 L 716.5,669.5 l 5.66684,2.78286 c 6.69135,3.28598 11.00548,9.22179 12.73086,17.51636 1.58845,7.63635 1.38452,55.05926 -0.26991,62.76408 -2.21982,10.33791 -8.57263,17.26196 -17.78745,19.38692 -6.58412,1.51831 -62.37501,1.21821 -67.42461,-0.36268 z M 21.476898,614.63778 C 11.288101,612.32992 4.473693,605.45453 2.185479,595.17371 0.578027,587.95152 0.661075,539.44309 2.293635,532 c 2.517543,-11.47786 8.613732,-17.39023 20.505586,-19.88727 7.147948,-1.50092 54.079249,-1.46376 61.783999,0.0489 10.63866,2.0887 17.57051,8.74799 20.12441,19.3331 1.58058,6.551 1.72043,55.36823 0.17964,62.70603 -2.46949,11.76064 -8.53535,18.01503 -19.88727,20.50538 -7.17883,1.57487 -56.502863,1.52177 -63.523102,-0.0684 z M 178.5,614.60606 c -7.25335,-1.77539 -12.75603,-5.83868 -16.11464,-11.89937 L 159.5,597.5 l -0.32465,-30 c -0.35043,-32.38224 0.31751,-39.38815 4.31625,-45.27283 3.19384,-4.70015 8.89155,-8.34324 15.47142,-9.89235 7.041,-1.65767 55.52937,-1.83596 63.23776,-0.23252 7.79245,1.62093 13.93563,5.91291 17.39218,12.15117 L 262.5,529.5 l 0.32465,30 c 0.21503,19.87023 -0.0644,31.98838 -0.82762,35.88872 -2.11252,10.79623 -8.51515,17.09944 -19.79625,19.48886 -7.34797,1.55636 -57.09939,1.3443 -63.70078,-0.27152 z m 157.9769,0.0317 c -10.1888,-2.30786 -17.00321,-9.18325 -19.29142,-19.46407 -1.60745,-7.22219 -1.5244,-55.73062 0.10815,-63.17371 2.51755,-11.47786 8.61374,-17.39023 20.50559,-19.88727 7.14795,-1.50092 54.07925,-1.46376 61.784,0.0489 10.63866,2.0887 17.57051,8.74799 20.12441,19.3331 1.58058,6.551 1.72043,55.36823 0.17964,62.70603 -2.46949,11.76064 -8.53535,18.01503 -19.88727,20.50538 -7.17883,1.57487 -56.50286,1.52177 -63.5231,-0.0684 z M 493.5,614.60606 c -7.25335,-1.77539 -12.75603,-5.83868 -16.11464,-11.89937 L 474.5,597.5 l -0.32465,-30 c -0.35043,-32.38224 0.31751,-39.38815 4.31625,-45.27283 3.19384,-4.70015 8.89155,-8.34324 15.47142,-9.89235 7.041,-1.65767 55.52937,-1.83596 63.23776,-0.23252 7.79245,1.62093 13.93563,5.91291 17.39218,12.15117 L 577.5,529.5 l 0.32465,30 c 0.21503,19.87023 -0.0644,31.98838 -0.82762,35.88872 -2.11252,10.79623 -8.51515,17.09944 -19.79625,19.48886 -7.34797,1.55636 -57.09939,1.3443 -63.70078,-0.27152 z m 157.9769,0.0317 c -10.1888,-2.30786 -17.00321,-9.18325 -19.29142,-19.46407 -1.60745,-7.22219 -1.5244,-55.73062 0.10815,-63.17371 2.51755,-11.47786 8.61374,-17.39023 20.50559,-19.88727 7.14795,-1.50092 54.07925,-1.46376 61.784,0.0489 10.63866,2.0887 17.57051,8.74799 20.12441,19.3331 1.58058,6.551 1.72043,55.36823 0.17964,62.70603 -2.46949,11.76064 -8.53535,18.01503 -19.88727,20.50538 -7.17883,1.57487 -56.50286,1.52177 -63.5231,-0.0684 z M 19.41573,456.58754 C 9.815892,453.5821 4.202291,447.29626 2.102305,437.20078 0.502686,429.51077 0.717314,382.10923 2.386206,374.5 c 2.436797,-11.11046 8.37375,-17.39732 18.47475,-19.5636 2.984104,-0.63998 16.669604,-0.92767 35.25812,-0.74119 L 86.5,354.5 l 5.66684,2.78286 c 6.69135,3.28598 11.00548,9.22179 12.73086,17.51636 1.58845,7.63635 1.38452,55.05926 -0.26991,62.76408 -2.21982,10.33791 -8.57263,17.26196 -17.78745,19.38692 -6.58412,1.51831 -62.375009,1.21821 -67.42461,-0.36268 z m 158.34155,0.32915 C 169.01326,454.85514 162.0856,447.83621 160.07356,439 c -1.39068,-6.10739 -1.37569,-59.49277 0.0185,-65.99377 1.42258,-6.63322 6.17624,-12.75357 12.38961,-15.95163 l 4.96322,-2.5546 h 33.02755 c 37.32448,0 38.22012,0.13995 45.1324,7.05223 7.133,7.13299 7.57815,10.01678 7.20959,46.70554 l -0.31445,31.30256 -2.5546,4.96061 c -3.19876,6.21145 -9.31991,10.96473 -15.95163,12.38698 -6.092,1.3065 -60.70153,1.31373 -66.23649,0.009 z m 156.65845,-0.32915 c -9.59984,-3.00544 -15.21344,-9.29128 -17.31343,-19.38676 -1.59961,-7.69001 -1.38499,-55.09155 0.28391,-62.70078 2.43679,-11.11046 8.37375,-17.39732 18.47475,-19.5636 2.9841,-0.63998 16.6696,-0.92767 35.25812,-0.74119 L 401.5,354.5 l 5.66684,2.78286 c 6.69135,3.28598 11.00548,9.22179 12.73086,17.51636 1.58845,7.63635 1.38452,55.05926 -0.26991,62.76408 -2.21982,10.33791 -8.57263,17.26196 -17.78745,19.38692 -6.58412,1.51831 -62.37501,1.21821 -67.42461,-0.36268 z m 158.34155,0.32915 C 484.01326,454.85514 477.0856,447.83621 475.07356,439 c -1.39068,-6.10739 -1.37569,-59.49277 0.0185,-65.99377 1.42258,-6.63322 6.17624,-12.75357 12.38961,-15.95163 l 4.96322,-2.5546 h 33.02755 c 37.32448,0 38.22012,0.13995 45.1324,7.05223 7.133,7.13299 7.57815,10.01678 7.20959,46.70554 l -0.31445,31.30256 -2.5546,4.96061 c -3.19876,6.21145 -9.31991,10.96473 -15.95163,12.38698 -6.092,1.3065 -60.70153,1.31373 -66.23649,0.009 z m 156.65845,-0.32915 c -9.59984,-3.00544 -15.21344,-9.29128 -17.31343,-19.38676 -1.59961,-7.69001 -1.38499,-55.09155 0.28391,-62.70078 2.43679,-11.11046 8.37375,-17.39732 18.47475,-19.5636 2.9841,-0.63998 16.6696,-0.92767 35.25812,-0.74119 L 716.5,354.5 l 5.66684,2.78286 c 6.69135,3.28598 11.00548,9.22179 12.73086,17.51636 1.58845,7.63635 1.38452,55.05926 -0.26991,62.76408 -2.21982,10.33791 -8.57263,17.26196 -17.78745,19.38692 -6.58412,1.51831 -62.37501,1.21821 -67.42461,-0.36268 z M 21.476898,299.63778 C 11.288101,297.32992 4.473693,290.45453 2.185479,280.17371 0.578027,272.95152 0.661075,224.44309 2.293635,217 c 2.517543,-11.47786 8.613732,-17.39023 20.505586,-19.88727 7.147948,-1.50092 54.079249,-1.46376 61.783999,0.0489 10.63866,2.0887 17.57051,8.74799 20.12441,19.3331 1.58058,6.551 1.72043,55.36823 0.17964,62.70603 -2.46949,11.76064 -8.53535,18.01503 -19.88727,20.50538 -7.17883,1.57487 -56.502863,1.52177 -63.523102,-0.0684 z M 178.5,299.60606 c -7.25335,-1.77539 -12.75603,-5.83868 -16.11464,-11.89937 L 159.5,282.5 l -0.32465,-30 c -0.35043,-32.38224 0.31751,-39.38815 4.31625,-45.27283 3.19384,-4.70015 8.89155,-8.34324 15.47142,-9.89235 7.041,-1.65767 55.52937,-1.83596 63.23776,-0.23252 7.79245,1.62093 13.93563,5.91291 17.39218,12.15117 L 262.5,214.5 l 0.32465,30 c 0.21503,19.87023 -0.0644,31.98838 -0.82762,35.88872 -2.11252,10.79623 -8.51515,17.09944 -19.79625,19.48886 -7.34797,1.55636 -57.09939,1.3443 -63.70078,-0.27152 z m 157.9769,0.0317 c -10.1888,-2.30786 -17.00321,-9.18325 -19.29142,-19.46407 -1.60745,-7.22219 -1.5244,-55.73062 0.10815,-63.17371 2.51755,-11.47786 8.61374,-17.39023 20.50559,-19.88727 7.14795,-1.50092 54.07925,-1.46376 61.784,0.0489 10.63866,2.0887 17.57051,8.74799 20.12441,19.3331 1.58058,6.551 1.72043,55.36823 0.17964,62.70603 -2.46949,11.76064 -8.53535,18.01503 -19.88727,20.50538 -7.17883,1.57487 -56.50286,1.52177 -63.5231,-0.0684 z M 493.5,299.60606 c -7.25335,-1.77539 -12.75603,-5.83868 -16.11464,-11.89937 L 474.5,282.5 l -0.32465,-30 c -0.35043,-32.38224 0.31751,-39.38815 4.31625,-45.27283 3.19384,-4.70015 8.89155,-8.34324 15.47142,-9.89235 7.041,-1.65767 55.52937,-1.83596 63.23776,-0.23252 7.79245,1.62093 13.93563,5.91291 17.39218,12.15117 L 577.5,214.5 l 0.32465,30 c 0.21503,19.87023 -0.0644,31.98838 -0.82762,35.88872 -2.11252,10.79623 -8.51515,17.09944 -19.79625,19.48886 -7.34797,1.55636 -57.09939,1.3443 -63.70078,-0.27152 z m 157.9769,0.0317 c -10.1888,-2.30786 -17.00321,-9.18325 -19.29142,-19.46407 -1.60745,-7.22219 -1.5244,-55.73062 0.10815,-63.17371 2.51755,-11.47786 8.61374,-17.39023 20.50559,-19.88727 7.14795,-1.50092 54.07925,-1.46376 61.784,0.0489 10.63866,2.0887 17.57051,8.74799 20.12441,19.3331 1.58058,6.551 1.72043,55.36823 0.17964,62.70603 -2.46949,11.76064 -8.53535,18.01503 -19.88727,20.50538 -7.17883,1.57487 -56.50286,1.52177 -63.5231,-0.0684 z M 19.41573,141.58754 C 9.815892,138.5821 4.202291,132.29626 2.102305,122.20078 0.502686,114.51077 0.717314,67.109232 2.386206,59.5 4.823003,48.389536 10.759956,42.102676 20.860956,39.9364 23.84506,39.296424 37.53056,39.008731 56.119076,39.195214 L 86.5,39.5 l 5.66684,2.782864 c 6.69135,3.285973 11.00548,9.221782 12.73086,17.516357 1.58845,7.636346 1.38452,55.059259 -0.26991,62.764079 -2.21982,10.33791 -8.57263,17.26196 -17.78745,19.38692 -6.58412,1.51831 -62.375009,1.21821 -67.42461,-0.36268 z m 158.34155,0.32915 C 169.01326,139.85514 162.0856,132.83621 160.07356,124 c -1.39068,-6.10739 -1.37569,-59.492765 0.0185,-65.99377 1.42258,-6.633221 6.17624,-12.753571 12.38961,-15.951628 L 177.44491,39.5 h 33.02755 c 37.32448,0 38.22012,0.139949 45.1324,7.052232 7.133,7.132993 7.57815,10.01678 7.20959,46.705543 L 262.5,124.56033 l -2.5546,4.96061 c -3.19876,6.21145 -9.31991,10.96473 -15.95163,12.38698 -6.092,1.3065 -60.70153,1.31373 -66.23649,0.009 z m 156.65845,-0.32915 c -9.59984,-3.00544 -15.21344,-9.29128 -17.31343,-19.38676 -1.59961,-7.69001 -1.38499,-55.091548 0.28391,-62.70078 2.43679,-11.110464 8.37375,-17.397324 18.47475,-19.5636 2.9841,-0.639976 16.6696,-0.927669 35.25812,-0.741186 L 401.5,39.5 l 5.66684,2.782864 c 6.69135,3.285973 11.00548,9.221782 12.73086,17.516357 1.58845,7.636346 1.38452,55.059259 -0.26991,62.764079 -2.21982,10.33791 -8.57263,17.26196 -17.78745,19.38692 -6.58412,1.51831 -62.37501,1.21821 -67.42461,-0.36268 z m 158.34155,0.32915 C 484.01326,139.85514 477.0856,132.83621 475.07356,124 c -1.39068,-6.10739 -1.37569,-59.492765 0.0185,-65.99377 1.42258,-6.633221 6.17624,-12.753571 12.38961,-15.951628 L 492.44491,39.5 h 33.02755 c 37.32448,0 38.22012,0.139949 45.1324,7.052232 7.133,7.132993 7.57815,10.01678 7.20959,46.705543 L 577.5,124.56033 l -2.5546,4.96061 c -3.19876,6.21145 -9.31991,10.96473 -15.95163,12.38698 -6.092,1.3065 -60.70153,1.31373 -66.23649,0.009 z m 156.65845,-0.32915 c -9.59984,-3.00544 -15.21344,-9.29128 -17.31343,-19.38676 -1.59961,-7.69001 -1.38499,-55.091548 0.28391,-62.70078 2.43679,-11.110464 8.37375,-17.397324 18.47475,-19.5636 2.9841,-0.639976 16.6696,-0.927669 35.25812,-0.741186 L 716.5,39.5 l 5.66684,2.782864 c 6.69135,3.285973 11.00548,9.221782 12.73086,17.516357 1.58845,7.636346 1.38452,55.059259 -0.26991,62.764079 -2.21982,10.33791 -8.57263,17.26196 -17.78745,19.38692 -6.58412,1.51831 -62.37501,1.21821 -67.42461,-0.36268 z"
       id="path845" />
  </g>
</svg>
