<?xml version="1.0" encoding="UTF-8" standalone="no"?>
<!-- Created with Inkscape (http://www.inkscape.org/) -->

<svg
   version="1.1"
   id="svg2"
   width="221.92368"
   height="250.04204"
   viewBox="0 0 221.92368 250.04204"
   sodipodi:docname="pattern.svg"
   inkscape:version="1.1.1 (3bf5ae0d25, 2021-09-20)"
   xmlns:inkscape="http://www.inkscape.org/namespaces/inkscape"
   xmlns:sodipodi="http://sodipodi.sourceforge.net/DTD/sodipodi-0.dtd"
   xmlns="http://www.w3.org/2000/svg"
   xmlns:svg="http://www.w3.org/2000/svg">
  <sodipodi:namedview
     id="namedview8"
     pagecolor="#ffffff"
     bordercolor="#999999"
     borderopacity="1"
     inkscape:pageshadow="0"
     inkscape:pageopacity="0"
     inkscape:pagecheckerboard="0"
     showgrid="false"
     fit-margin-top="0"
     fit-margin-left="0"
     fit-margin-right="0"
     fit-margin-bottom="0"
     inkscape:zoom="3.592"
     inkscape:cx="33.268374"
     inkscape:cy="112.61136"
     inkscape:window-width="1920"
     inkscape:window-height="1057"
     inkscape:window-x="-8"
     inkscape:window-y="-8"
     inkscape:window-maximized="1"
     inkscape:current-layer="svg2" />
  <defs
     id="defs6" />
  <g
     id="g8"
     transform="translate(-107.70601,-7.4056506)">
    <path
       style="fill:#000000"
       d="m 193.20601,255.58685 c 3.53313,-1.25415 5.21554,-1.45145 5.73469,-0.6725 1.46404,2.19669 0.66582,2.60101 -4.98469,2.52485 l -5.75,-0.0775 5,-1.77484 z m 64.87205,-0.2621 c -6.07437,-1.9951 -12.66293,-8.02252 -16.16562,-14.7888 -3.50271,-6.76633 -3.61055,-9.78826 -0.47353,-13.26925 2.35559,-2.61387 3.83354,-2.15001 6.2616,1.96526 l 2.19206,3.71526 -2.09328,1.69503 c -1.1513,0.93227 -2.09328,2.30787 -2.09328,3.0569 0,2.08388 5.80981,8.66784 9.19204,10.41686 2.83408,1.46556 3.1457,1.43203 5.27398,-0.56739 l 2.26194,-2.12498 3.63602,2.14531 c 4.14423,2.44516 4.30418,2.93655 1.88602,5.79432 -2.18204,2.57873 -5.80704,3.29855 -9.87795,1.96148 z M 124.86714,239.88082 c 8.28988,-15.49866 8.5747,-15.96163 9.34563,-15.1907 0.88265,0.88266 -12.7269,26.06663 -14.38528,26.61942 -0.7184,0.23947 1.54944,-4.90346 5.03965,-11.42872 z m 8.43535,9.79198 c -0.3238,-0.52392 1.65953,-2.39528 4.4074,-4.15859 2.74787,-1.7633 4.99612,-3.59346 4.99612,-4.06703 0,-0.47356 -1.33587,-2.96748 -2.96861,-5.54203 -1.63273,-2.57456 -2.70628,-5.10547 -2.38565,-5.62425 0.59977,-0.97045 8.35518,9.94442 8.3387,11.7358 -0.005,0.55 -1.46612,1.93565 -3.24682,3.07923 -1.78069,1.14357 -4.43345,2.85552 -5.89502,3.80433 -1.53602,0.99714 -2.90583,1.32314 -3.24612,0.77254 z m -21.84648,-8.99483 c -2.0625,-3.20167 -3.75,-6.10891 -3.75,-6.46052 0,-0.82621 10.72987,-7.70075 12.01942,-7.70075 2.09939,0 0.7854,1.62105 -3.51748,4.33947 -2.47197,1.56171 -4.74539,3.24543 -5.05204,3.7416 -0.30665,0.49616 0.81668,2.89948 2.49628,5.3407 3.00351,4.36545 3.78248,6.58673 2.30382,6.56948 -0.4125,-0.005 -2.4375,-2.6283 -4.5,-5.82998 z m 70.70135,-0.42747 c -0.29314,-0.76389 -0.0438,-2.67565 0.55418,-4.24834 0.9878,-2.59811 0.77224,-3.17436 -2.3587,-6.3053 -3.23613,-3.23613 -3.64596,-3.37611 -6.73322,-2.29989 -4.8356,1.6857 -5.56656,0.09 -2.41906,-5.28075 2.52503,-4.30865 2.96123,-4.59952 6.89753,-4.59952 3.61621,0 4.75312,-0.57427 8.15498,-4.11921 4.37439,-4.55838 10.48614,-7.82515 14.70294,-7.85883 2.48764,-0.0199 2.75,0.31669 2.75,3.5277 0,4.47637 -2.20785,8.89717 -6.86018,13.73626 -2.58936,2.69329 -3.92842,5.22649 -4.63982,8.77742 -0.87806,4.38286 -1.51917,5.30047 -5.25784,7.52543 -3.35765,1.99822 -4.37052,2.2403 -4.79081,1.14503 z m 17.88222,-27.16069 c 0.30115,-0.78478 -0.12329,-1.98363 -0.9432,-2.66409 -1.20013,-0.99603 -1.79645,-0.93151 -3.05888,0.33092 -0.86248,0.86248 -1.26334,2.06132 -0.8908,2.6641 0.97227,1.57316 4.24721,1.35166 4.89288,-0.33093 z m 94.19211,17.47655 c -1.75774,-3.39909 -1.99668,-9.30107 -0.4905,-12.1154 0.83303,-1.55653 2.12168,-1.93426 6.59879,-1.93426 4.89236,0 5.90172,-0.36195 8.36603,-3 3.65944,-3.91744 7.05835,-3.9078 10.37132,0.0294 3.1692,3.76638 4.45084,9.61324 2.50624,11.43346 -2.05484,1.92341 -19.96305,8.54356 -23.10188,8.5401 -2.00381,-0.002 -3.12782,-0.78328 -4.25,-2.95334 z M 283.7289,219.04428 c -0.67209,-0.80982 -1.2897,-2.93843 -1.37244,-4.73024 -0.14388,-3.11548 0.0391,-3.28399 4.18851,-3.85663 3.80219,-0.52473 4.52982,-0.30751 5.8818,1.75587 1.41378,2.1577 1.38543,2.54073 -0.33896,4.57904 -3.52091,4.16188 -6.1794,4.87811 -8.35891,2.25196 z m 12.89045,-5.80938 c -6.61072,-5.07556 -3.57419,-14.7182 4.63485,-14.7182 6.9342,0 10.26813,9.63952 4.81695,13.92742 -2.92999,2.30473 -7.03284,2.648 -9.4518,0.79078 z m -14.35664,-6.94071 c -2.09598,-2.99243 -1.95913,-5.10332 0.47358,-7.30489 3.18344,-2.88097 7.36781,-1.00228 7.79843,3.50132 0.53826,5.62935 -5.15846,8.24878 -8.27201,3.80357 z m 29.44477,0.0543 c -8.1e-4,-0.91752 -0.27461,-2.38002 -0.60846,-3.25 -0.36056,-0.9396 -0.0822,-1.58179 0.68555,-1.58179 0.7109,0 2.31114,-0.95693 3.55611,-2.12651 2.92661,-2.74941 4.86316,-1.9251 6.39718,2.72302 1.09572,3.32007 1.02851,3.88618 -0.60301,5.07919 -2.62485,1.91933 -9.42548,1.31056 -9.42737,-0.84391 z m -5.00147,-8.83179 c -2.49115,-2.49115 -2.55405,-5.18862 -0.17126,-7.34501 2.14831,-1.9442 5.2778,-2.14845 6.97126,-0.45499 1.98905,1.98905 1.42599,6.5283 -1.02251,8.2433 -2.86015,2.00333 -3.36998,1.96421 -5.77749,-0.4433 z m -185.643,-4.99158 c -5.48359,-2.2129 -7.2696,-11.18672 -3.06355,-15.39277 1.26139,-1.2614 2.83251,-4.09268 3.49136,-6.29175 1.58412,-5.28732 4.17227,-7.45202 9.64761,-8.06917 4.12698,-0.46517 4.81019,-0.21212 7.97675,2.95444 2.75211,2.75211 4.0669,3.37457 6.4035,3.03163 3.58194,-0.52571 6.462,2.81666 5.55184,6.44303 -0.4207,1.67621 -0.15258,2.31617 0.97038,2.31617 2.13176,0 4.66511,3.87771 4.66511,7.14072 0,7.52335 -3.10955,8.87735 -20.20034,8.79589 -7.31481,-0.0349 -14.26401,-0.45255 -15.44266,-0.92819 z m 105.80967,-4.95471 c 0.38939,-1.10544 19.84422,-23.05371 20.43468,-23.05371 0.21926,0 0.39865,1.06877 0.39865,2.37505 0,3.13012 -16.42257,21.62495 -19.20198,21.62495 -1.08058,0 -1.81469,-0.42583 -1.63135,-0.94629 z m -7.26087,-11.86611 -5.3487,-4.91815 2.66577,-3.38472 c 1.46617,-1.8616 5.09913,-5.97223 8.07323,-9.13473 5.83288,-6.20236 9.03998,-7.24609 12.04891,-3.92126 1.87144,2.06791 2.20491,7.22134 0.57289,8.85336 -0.77614,0.77614 -0.71802,1.66509 0.20553,3.14393 1.15891,1.85571 0.78171,2.64226 -3.77316,7.8679 -2.78344,3.19334 -5.96866,5.94236 -7.07828,6.10894 -1.29381,0.19424 -3.93607,-1.46126 -7.36619,-4.61527 z m 16.5942,-16.77093 c 0,-2.30584 -0.49536,-2.98676 -2.36534,-3.25133 -3.88102,-0.54912 -4.85577,1.43817 -2.12905,4.34063 2.93297,3.12201 4.49439,2.74357 4.49439,-1.0893 z m 63,11.92448 c -7.84595,-4.12898 -12.45608,-11.47241 -12.45608,-19.84115 0,-6.44482 2.60545,-12.06412 7.74012,-16.69349 4.59273,-4.14078 8.67696,-5.26472 16.71031,-4.59854 20.90426,1.73355 25.41817,31.04737 6.29549,40.88361 -4.59923,2.36574 -14.0243,2.49434 -18.28984,0.24957 z m 13.04539,-4.4569 c 5.44752,-1.3717 11.03765,-7.14474 12.02749,-12.42105 2.04411,-10.89604 -8.19636,-20.93767 -19.23953,-18.86596 -4.57427,0.85814 -10.86351,6.44911 -12.36196,10.98946 -2.60262,7.88601 2.19855,16.96572 10.52861,19.91115 4.93208,1.74394 3.83949,1.69726 9.04539,0.3864 z m -4.29539,-8.15785 -6.25,-3.15353 v -7.28644 c 0,-4.00753 0.23783,-7.28643 0.52852,-7.28643 0.29068,0 3.21568,1.35648 6.5,3.0144 l 5.97148,3.01439 v 7.48561 c 0,4.11708 -0.1125,7.45859 -0.25,7.42557 -0.1375,-0.033 -3.0625,-1.47912 -6.5,-3.21357 z m 4.75,-5.2264 c 0,-1.925 -0.47235,-3.5 -1.04966,-3.5 -1.2554,0 -6.95034,2.86269 -6.95034,3.49374 0,0.67943 5.33889,3.42102 6.75,3.46622 0.76953,0.0247 1.25,-1.30527 1.25,-3.45996 z m -191.3125,-16.14583 c -0.37812,-0.37813 -0.6875,-5.02423 -0.6875,-10.32467 v -9.63717 l -3.5,-3.39233 c -3.59988,-3.48914 -4.50978,-6 -2.17431,-6 0.72913,0 2.38257,1.125 3.67431,2.5 3.41728,3.63753 11.26243,3.58083 15.11402,-0.10924 4.63225,-4.43797 5.43387,-1.7088 0.93246,3.17464 l -4.04648,4.38991 v 10.02235 c 0,8.24208 -0.26644,10.02234 -1.5,10.02234 -1.15151,0 -1.5,-1.27778 -1.5,-5.5 0,-4.13398 -0.35957,-5.5 -1.44774,-5.5 -1.03805,0 -1.53327,1.46342 -1.75,5.1714 -0.2812,4.81117 -1.48437,6.81316 -3.11476,5.18277 z m 65.97729,-8.10417 c -0.98418,-1.62856 -5.97358,-27.27453 -5.41492,-27.8332 0.3278,-0.32779 3.30599,1.24433 6.6182,3.49361 3.3122,2.24927 6.21661,4.08959 6.45422,4.08959 0.23762,0 0.21634,-1.91365 -0.0473,-4.25255 -0.65163,-5.781237 1.25642,-7.289662 12.31268,-9.733895 15.16173,-3.351838 15.72528,-3.063116 18.46158,9.458395 2.41997,11.07395 2.45566,14.76113 0.16298,16.83597 -0.98326,0.88985 -6.37163,2.59397 -11.97415,3.78693 -9.42698,2.00733 -10.36823,2.0499 -12.62535,0.57098 -1.34142,-0.87893 -2.7388,-2.96331 -3.1053,-4.63195 -0.36648,-1.66863 -1.01662,-3.03388 -1.44475,-3.03388 -0.42812,0 -2.44494,2.7 -4.48181,6 -3.81005,6.17276 -4.14333,6.52868 -4.91608,5.25 z m -64.46479,-18.45 c -1.5425,-1.5425 -1.5425,-5.0575 0,-6.6 1.83712,-1.83712 5.60769,-1.42786 6.76482,0.73426 1.4064,2.62788 1.30648,3.65158 -0.53625,5.49431 -1.87151,1.87152 -4.56769,2.0323 -6.22857,0.37143 z m 182.36631,-5.3817 c -2.16352,-0.79244 -4.63852,-2.05051 -5.5,-2.79572 -0.86147,-0.74522 -4.49131,-1.64157 -8.06631,-1.9919 -18.63291,-1.825927 -26.42739,-16.52993 -13.75105,-25.94088 13.33363,-9.898929 36.75105,-2.958326 36.75105,10.89251 0,3.184531 -3.39853,9.025432 -6.08938,10.465527 -2.56566,1.373099 -2.40571,3.210341 0.58938,6.769793 3.9188,4.65724 3.12111,5.18461 -3.93369,2.60067 z m -0.52488,-5.809323 c -0.92041,-2.420874 -0.59834,-3.067179 3.47202,-6.967271 5.07059,-4.858475 5.5641,-7.362029 2.45614,-12.459731 -6.08498,-9.980618 -28.8542,-9.980618 -34.93918,0 -2.71478,4.452806 -2.55337,7.043076 0.67822,10.883602 3.60485,4.284126 9.6252,6.885583 15.99696,6.912465 3.88481,0.01639 6.1444,0.659054 8.9057,2.532928 2.03507,1.38103 3.86764,2.34344 4.07239,2.13869 0.20475,-0.20476 -0.0843,-1.57306 -0.64225,-3.040683 z M 145.32385,76.362641 c -1.0352,-0.601286 -4.327,-1.201903 -7.31512,-1.334704 -5.80822,-0.258137 -10.13136,-2.511233 -4.81844,-2.511233 7.29556,0 15.50343,-6.994371 15.51199,-13.218615 0.005,-3.512645 2.35081,-2.771888 4.02546,1.271059 1.54645,3.733481 0.58058,7.484855 -2.71307,10.537305 -2.53227,2.346829 -2.55637,2.479054 -0.80457,4.41477 1.74453,1.927678 1.74116,1.994448 -0.0991,1.965072 -1.04774,-0.01672 -2.75196,-0.522369 -3.78715,-1.123654 z m -27.61784,-4.517196 c 0,-0.369193 0.69517,-1.439411 1.54482,-2.378262 1.40947,-1.557444 1.27805,-1.97377 -1.5,-4.751817 -9.89346,-9.893457 7.14434,-22.244431 20.96159,-15.195396 4.55652,2.324564 5.99359,4.540961 5.99359,9.243901 0,5.798809 -6.88449,10.752833 -14.94297,10.752833 -2.09703,0 -5.42828,0.675 -7.40278,1.5 -4.02272,1.6808 -4.65425,1.79325 -4.65425,0.828741 z m 20.55532,-6.593472 c 12.18356,-6.321551 -0.84633,-19.743464 -14.24022,-14.668657 -7.67713,2.908789 -9.34422,8.474458 -4.06601,13.574664 2.98973,2.888901 3.73296,3.122716 9.25091,2.910273 3.3,-0.127051 7.3749,-0.944377 9.05532,-1.81628 z m 95.7585,-3.685496 c -1.7524,-1.068513 -3.6649,-2.837248 -4.25,-3.930521 -1.70421,-3.184355 -1.29108,-7.960376 0.80163,-9.267297 1.026,-0.640746 1.67331,-1.899754 1.43846,-2.797795 -0.40039,-1.53109 3.13803,-5.73277 4.55108,-5.40416 0.35475,0.0825 0.4676,-0.3675 0.25077,-1 -0.21683,-0.6325 -1.08325,-3.530004 -1.92539,-6.438897 -1.39612,-4.822489 -1.38783,-5.432217 0.094,-6.914097 2.20575,-2.205744 4.10097,-0.551665 6.33824,5.531763 0.94485,2.569177 2.06987,5.075068 2.50004,5.568647 0.43017,0.493578 1.90849,-1.649487 3.28516,-4.762367 2.58373,-5.842283 4.88139,-7.755795 6.89499,-5.742203 0.87788,0.877881 0.73207,2.783911 -0.60209,7.8707 -1.57504,6.005182 -1.59917,6.830256 -0.22909,7.832087 4.20909,3.077759 2.49994,13.474863 -3.01041,18.31302 -2.87266,2.522226 -4.38893,3.090659 -8.23606,3.087609 -2.90318,-0.0023 -5.93963,-0.750324 -7.90138,-1.946489 z m 14.27248,-1.698273 c 3.39862,-2.226863 5.4137,-6.420524 5.4137,-11.266656 0,-4.734025 -1.53708,-5.887378 -9.02863,-6.774641 -4.20603,-0.498141 -4.97137,-0.332606 -4.97137,1.075257 0,1.932436 3.74997,3.589055 8.3151,3.673347 2.89168,0.05339 3.00618,0.168476 1.24368,1.25 -4.83923,2.969512 -6.79592,5.755491 -6.18558,8.807192 0.3688,1.844005 0.22052,2.750939 -0.38826,2.374695 -0.54172,-0.334801 -0.98494,-1.25717 -0.98494,-2.049711 0,-1.868871 -1.42323,-1.840873 -3,0.05902 -0.68469,0.825 -1.63979,1.5 -2.12244,1.5 -1.33931,0 -4.88153,-3.836629 -4.84715,-5.25 0.0169,-0.69372 0.48401,-0.471208 1.04969,0.5 0.98912,1.698224 4.95359,2.509512 4.88663,1 -0.0667,-1.503799 -3.8272,-5.25 -5.27003,-5.25 -3.80566,0 -2.60604,6.35295 1.86348,9.868677 3.32885,2.618475 10.39544,2.86173 14.02612,0.482823 z m -6.5863,-7.891338 c 0,-0.296911 -0.90915,-2.321911 -2.02032,-4.5 -1.32621,-2.599588 -2.70048,-3.960162 -4,-3.960162 -2.52618,0 -2.50047,1.421271 0.10188,5.631966 1.19298,1.930287 2.9005,3.368034 4,3.368034 1.05514,0 1.91844,-0.242927 1.91844,-0.539838 z m 2.5,-3.460162 c -0.33992,-0.55 -1.04148,-1 -1.55902,-1 -0.51754,0 -0.94098,0.45 -0.94098,1 0,0.55 0.70156,1 1.55902,1 0.85746,0 1.2809,-0.45 0.94098,-1 z m 7.33746,-13.984702 c 1.29878,-3.845909 1.65783,-6.209194 1.00467,-6.612868 -1.53669,-0.949727 -2.6024,0.587688 -4.76548,6.87478 -1.9032,5.531742 -1.90702,5.72279 -0.11459,5.72279 1.37408,0 2.37777,-1.549984 3.8754,-5.984702 z m -11.11745,-1.18884 c -2.63892,-7.338463 -5.32618,-9.267706 -4.47074,-3.209635 0.87353,6.186256 2.47349,9.383177 4.69599,9.383177 1.96868,0 1.96574,-0.08069 -0.22525,-6.173542 z m -66.72001,17.732559 c 0,-0.792541 0.40285,-1.689956 0.89522,-1.994256 1.02941,-0.636215 2.27065,1.936039 1.36922,2.837473 -1.07303,1.073023 -2.26444,0.629373 -2.26444,-0.843217 z m 7,-2.031385 c 0,-1.99567 1.68405,-2.793365 2.33208,-1.104647 0.2979,0.776323 -0.10495,1.659616 -0.89522,1.962871 -0.83035,0.318638 -1.43686,-0.04362 -1.43686,-0.858224 z m 120.98983,-1.777632 c -5.78709,-3.93866 -7.48983,-7.15579 -7.48983,-14.151173 0,-5.250617 0.43233,-6.821332 2.69355,-9.785942 7.51929,-9.858287 22.26454,-8.67593 27.82909,2.231492 4.30409,8.436724 1.16293,18.187777 -7.27264,22.576317 l -2.75,1.430666 v -4.52568 c 0,-3.253885 0.40113,-4.52568 1.42742,-4.52568 3.63662,0 7.45753,-9.717005 4.5319,-11.52514 -0.57237,-0.353746 -0.80764,-1.392803 -0.52283,-2.309017 0.84093,-2.705145 -0.85564,-4.547072 -3.08786,-3.352422 -2.44264,1.307258 -11.22791,1.321556 -13.65573,0.02223 -2.74393,-1.468506 -2.79813,-1.365502 -4.3024,8.175812 -0.41906,2.658006 -0.0301,4.177053 1.60052,6.25 1.18478,1.506193 2.79648,2.738537 3.58156,2.738537 1.67635,0 1.89729,1.59157 0.35339,2.545752 -0.59071,0.365082 -2.13355,-0.331583 -3.42852,-1.548144 -1.29497,-1.216561 -2.79999,-2.051207 -3.3445,-1.854769 -1.63444,0.589644 3.32881,5.942421 5.67376,6.119061 1.3593,0.102392 2.17329,0.833093 2.17329,1.950904 0,2.249527 -0.03,2.246063 -4.01017,-0.462804 z m -114.44198,-1 c -0.21417,-0.6875 -0.79779,-2.6 -1.29695,-4.25 -1.11729,-3.693318 -5.2509,-4.909412 -5.2509,-1.5448 0,1.99647 -1.06869,2.709477 -6.67919,4.456183 -1.92647,0.599766 -2.33869,0.122383 -3.55456,-4.116469 -1.40326,-4.89214 -0.60985,-6.830874 1.57351,-3.844947 1.5852,2.167886 4.94233,1.014167 4.16604,-1.431709 -0.43884,-1.382662 0.39131,-2.009509 3.99887,-3.019566 2.50398,-0.701069 4.70043,-1.100077 4.88101,-0.886682 0.64661,0.764108 4.61432,13.302865 4.61432,14.582162 0,1.666109 -1.9368,1.710204 -2.45215,0.05583 z m 7.18718,-1.431826 c -1.6602,-2.906915 -4.80382,-14.636238 -4.09614,-15.283302 1.11571,-1.020139 14.3716,-5.357712 14.86516,-4.864154 0.20696,0.206961 1.47445,3.834418 2.81665,8.061015 l 2.44035,7.684723 -6.63052,2.188096 c -3.64679,1.203453 -7.14751,2.377929 -7.77938,2.609946 -0.63187,0.232017 -1.35912,0.05367 -1.61612,-0.396324 z m 7.36575,-4.454655 c 4.8975,-1.637409 5.10984,-2.047328 3.73099,-7.202695 -1.35573,-5.068923 -2.19604,-5.442262 -7.93255,-3.524343 -4.91328,1.642685 -5.0747,1.992223 -3.31077,7.169075 1.71591,5.035921 2.28524,5.305565 7.51233,3.557963 z m -3.10078,-5.446852 c 0,-1.765927 2.15276,-1.45839 2.77083,0.395833 0.21771,0.653125 -0.31666,1.1875 -1.1875,1.1875 -0.87083,0 -1.58333,-0.7125 -1.58333,-1.583333 z m -31.52056,-4.666667 c -1.76072,-4.807651 -4.47944,-13.193145 -4.47944,-13.816186 0,-0.693542 15.12315,-6.217687 15.5343,-5.67433 0.1001,0.132284 1.34765,3.751034 2.77234,8.041668 1.86743,5.624001 2.25587,7.923395 1.39185,8.239176 -5.18294,1.894265 -13.17104,4.459672 -13.88642,4.459672 -0.48116,0 -1.08084,-0.5625 -1.33263,-1.25 z M 179.594,24.900527 c 0.62604,-0.526773 -2.07777,-9.383082 -3.04763,-9.982488 -0.48691,-0.300928 -3.14223,0.202492 -5.90071,1.118712 -5.45448,1.811687 -5.43502,1.736725 -2.38673,9.192039 l 1.31335,3.212086 4.81687,-1.60694 c 2.64927,-0.883817 4.99146,-1.753851 5.20485,-1.933409 z m -7.88799,-3.967156 c 0,-1.765927 2.15276,-1.45839 2.77084,0.395833 0.21771,0.653125 -0.31667,1.1875 -1.1875,1.1875 -0.87084,0 -1.58334,-0.7125 -1.58334,-1.583333 z m 13.69598,-3.739402 c -1.45386,-4.434757 -2.42969,-8.2768806 -2.16852,-8.5380529 0.26117,-0.2611724 3.06184,-0.6228111 6.2237,-0.8036416 l 5.74884,-0.3287829 -4.25,1.5799395 c -2.3375,0.8689666 -4.25,2.1502889 -4.25,2.8473829 0,1.585607 2.05856,7.821778 2.89713,8.77654 0.527,0.600017 11.10287,-1.883938 11.10287,-2.607732 0,-0.135652 -0.72561,-2.376192 -1.61247,-4.978977 -1.54796,-4.5430215 -1.30033,-7.0169297 0.50622,-5.0572745 1.23169,1.3360836 4.41038,11.4625335 3.79215,12.0807685 -0.28483,0.284829 -3.85432,1.54728 -7.93221,2.805448 l -7.41433,2.287576 z m 6.9435,-1.371118 c -1.12618,-1.126184 -0.68589,-2.306147 0.86052,-2.306147 0.825,0 1.5,0.423442 1.5,0.940983 0,1.260977 -1.56159,2.164094 -2.36052,1.365164 z"
       id="path1895" />
    <path
       style="fill:#000000"
       id="path1007"
       d="" />
  </g>
</svg>
