<?xml version="1.0" encoding="UTF-8" standalone="no"?>
<!-- Created with Inkscape (http://www.inkscape.org/) -->

<svg
   version="1.1"
   id="svg2"
   width="221.92368"
   height="250.04204"
   viewBox="0 0 221.92368 250.04204"
   sodipodi:docname="pattern-dark.svg"
   inkscape:version="1.1.1 (3bf5ae0d25, 2021-09-20)"
   xmlns:inkscape="http://www.inkscape.org/namespaces/inkscape"
   xmlns:sodipodi="http://sodipodi.sourceforge.net/DTD/sodipodi-0.dtd"
   xmlns="http://www.w3.org/2000/svg"
   xmlns:svg="http://www.w3.org/2000/svg">
  <sodipodi:namedview
     id="namedview8"
     pagecolor="#ffffff"
     bordercolor="#999999"
     borderopacity="1"
     inkscape:pageshadow="0"
     inkscape:pageopacity="0"
     inkscape:pagecheckerboard="0"
     showgrid="false"
     inkscape:zoom="1.0263363"
     inkscape:cx="66.742256"
     inkscape:cy="169.0479"
     inkscape:window-width="1920"
     inkscape:window-height="1057"
     inkscape:window-x="-8"
     inkscape:window-y="-8"
     inkscape:window-maximized="1"
     inkscape:current-layer="svg2"
     fit-margin-top="0"
     fit-margin-left="0"
     fit-margin-right="0"
     fit-margin-bottom="0" />
  <defs
     id="defs6" />
  <g
     id="g8"
     transform="translate(-15,0.11105322)"
     style="fill:#939393;fill-opacity:1">
    <path
       style="fill:#939393;fill-opacity:1"
       d="m 100.5,248.07015 c 3.53313,-1.25415 5.21554,-1.45145 5.73469,-0.6725 1.46404,2.19669 0.66582,2.60101 -4.98469,2.52485 l -5.75,-0.0775 5,-1.77484 z m 64.87205,-0.2621 c -6.07437,-1.9951 -12.66293,-8.02252 -16.16562,-14.7888 -3.50271,-6.76633 -3.61055,-9.78826 -0.47353,-13.26925 2.35559,-2.61387 3.83354,-2.15001 6.2616,1.96526 l 2.19206,3.71526 -2.09328,1.69503 c -1.1513,0.93227 -2.09328,2.30787 -2.09328,3.0569 0,2.08388 5.80981,8.66784 9.19204,10.41686 2.83408,1.46556 3.1457,1.43203 5.27398,-0.56739 l 2.26194,-2.12498 3.63602,2.14531 c 4.14423,2.44516 4.30418,2.93655 1.88602,5.79432 -2.18204,2.57873 -5.80704,3.29855 -9.87795,1.96148 z M 32.161131,232.36412 c 8.289871,-15.49866 8.574696,-15.96163 9.345626,-15.1907 0.882654,0.88266 -12.726905,26.06663 -14.385283,26.61942 -0.7184,0.23947 1.549446,-4.90346 5.039657,-11.42872 z m 8.435342,9.79198 c -0.323799,-0.52392 1.659532,-2.39528 4.407401,-4.15859 C 47.751743,236.23421 50,234.40405 50,233.93048 c 0,-0.47356 -1.335874,-2.96748 -2.968609,-5.54203 -1.632735,-2.57456 -2.706282,-5.10547 -2.385659,-5.62425 0.599773,-0.97045 8.35518,9.94442 8.338707,11.7358 -0.0051,0.55 -1.466126,1.93565 -3.246818,3.07923 -1.780691,1.14357 -4.433451,2.85552 -5.895022,3.80433 -1.536021,0.99714 -2.905834,1.32314 -3.246126,0.77254 z M 18.75,233.16127 C 16.6875,229.9596 15,227.05236 15,226.70075 15,225.87454 25.729862,219 27.019417,219 c 2.099392,0 0.785404,1.62105 -3.517483,4.33947 -2.47197,1.56171 -4.745385,3.24543 -5.052035,3.7416 -0.30665,0.49616 0.816675,2.89948 2.496278,5.3407 3.003509,4.36545 3.782479,6.58673 2.303823,6.56948 -0.4125,-0.005 -2.4375,-2.6283 -4.5,-5.82998 z m 70.701345,-0.42747 c -0.293135,-0.76389 -0.04375,-2.67565 0.554184,-4.24834 0.987801,-2.59811 0.772237,-3.17436 -2.358706,-6.3053 -3.236122,-3.23613 -3.645954,-3.37611 -6.733217,-2.29989 -4.835602,1.6857 -5.566557,0.09 -2.419062,-5.28075 C 81.019581,210.29087 81.455779,210 85.392074,210 c 3.616211,0 4.753125,-0.57427 8.154978,-4.11921 4.374395,-4.55838 10.486148,-7.82515 14.702948,-7.85883 2.48764,-0.0199 2.75,0.31669 2.75,3.5277 0,4.47637 -2.20785,8.89717 -6.86018,13.73626 -2.58936,2.69329 -3.92842,5.22649 -4.63982,8.77742 -0.878066,4.38286 -1.519177,5.30047 -5.257841,7.52543 -3.357649,1.99822 -4.370521,2.2403 -4.790814,1.14503 z m 17.882225,-27.16069 c 0.30115,-0.78478 -0.12329,-1.98363 -0.9432,-2.66409 -1.20013,-0.99603 -1.79645,-0.93151 -3.05888,0.33092 -0.86248,0.86248 -1.26334,2.06132 -0.8908,2.6641 0.97227,1.57316 4.24721,1.35166 4.89288,-0.33093 z m 94.19211,17.47655 c -1.75774,-3.39909 -1.99668,-9.30107 -0.4905,-12.1154 0.83303,-1.55653 2.12168,-1.93426 6.59879,-1.93426 4.89236,0 5.90172,-0.36195 8.36603,-3 3.65944,-3.91744 7.05835,-3.9078 10.37132,0.0294 3.1692,3.76638 4.45084,9.61324 2.50624,11.43346 -2.05484,1.92341 -19.96305,8.54356 -23.10188,8.5401 -2.00381,-0.002 -3.12782,-0.78328 -4.25,-2.95334 z m -10.50279,-11.52208 c -0.67209,-0.80982 -1.2897,-2.93843 -1.37244,-4.73024 -0.14388,-3.11548 0.0391,-3.28399 4.18851,-3.85663 3.80219,-0.52473 4.52982,-0.30751 5.8818,1.75587 1.41378,2.1577 1.38543,2.54073 -0.33896,4.57904 -3.52091,4.16188 -6.1794,4.87811 -8.35891,2.25196 z m 12.89045,-5.80938 C 197.30262,200.64264 200.33915,191 208.54819,191 c 6.9342,0 10.26813,9.63952 4.81695,13.92742 -2.92999,2.30473 -7.03284,2.648 -9.4518,0.79078 z m -14.35664,-6.94071 c -2.09598,-2.99243 -1.95913,-5.10332 0.47358,-7.30489 3.18344,-2.88097 7.36781,-1.00228 7.79843,3.50132 0.53826,5.62935 -5.15846,8.24878 -8.27201,3.80357 z m 29.44477,0.0543 c -8.1e-4,-0.91752 -0.27461,-2.38002 -0.60846,-3.25 -0.36056,-0.9396 -0.0822,-1.58179 0.68555,-1.58179 0.7109,0 2.31114,-0.95693 3.55611,-2.12651 2.92661,-2.74941 4.86316,-1.9251 6.39718,2.72302 1.09572,3.32007 1.02851,3.88618 -0.60301,5.07919 -2.62485,1.91933 -9.42548,1.31056 -9.42737,-0.84391 z M 214,190 c -2.49115,-2.49115 -2.55405,-5.18862 -0.17126,-7.34501 2.14831,-1.9442 5.2778,-2.14845 6.97126,-0.45499 1.98905,1.98905 1.42599,6.5283 -1.02251,8.2433 C 216.91734,192.44663 216.40751,192.40751 214,190 Z M 28.356999,185.00842 c -5.483588,-2.2129 -7.269606,-11.18672 -3.063553,-15.39277 1.261395,-1.2614 2.832509,-4.09268 3.491364,-6.29175 1.58412,-5.28732 4.172266,-7.45202 9.647602,-8.06917 4.126984,-0.46517 4.810193,-0.21212 7.976754,2.95444 2.752115,2.75211 4.066896,3.37457 6.403503,3.03163 3.581939,-0.52571 6.461998,2.81666 5.551836,6.44303 C 57.943804,169.36004 58.211923,170 59.334888,170 61.466651,170 64,173.87771 64,177.14072 c 0,7.52335 -3.109553,8.87735 -20.20034,8.79589 -7.314813,-0.0349 -14.264011,-0.45255 -15.442661,-0.92819 z M 134.16667,180.05371 C 134.55606,178.94827 154.01089,157 154.60135,157 154.82061,157 155,158.06877 155,159.37505 155,162.50517 138.57743,181 135.79802,181 c -1.08058,0 -1.81469,-0.42583 -1.63135,-0.94629 z m -7.26087,-11.86611 -5.3487,-4.91815 2.66577,-3.38472 c 1.46617,-1.8616 5.09913,-5.97223 8.07323,-9.13473 5.83288,-6.20236 9.03998,-7.24609 12.04891,-3.92126 1.87144,2.06791 2.20491,7.22134 0.57289,8.85336 -0.77614,0.77614 -0.71802,1.66509 0.20553,3.14393 1.15891,1.85571 0.78171,2.64226 -3.77316,7.8679 -2.78344,3.19334 -5.96866,5.94236 -7.07828,6.10894 -1.29381,0.19424 -3.93607,-1.46126 -7.36619,-4.61527 z M 143.5,151.41667 c 0,-2.30584 -0.49536,-2.98676 -2.36534,-3.25133 -3.88102,-0.54912 -4.85577,1.43817 -2.12905,4.34063 2.93297,3.12201 4.49439,2.74357 4.49439,-1.0893 z m 63,11.92448 c -7.84595,-4.12898 -12.45608,-11.47241 -12.45608,-19.84115 0,-6.44482 2.60545,-12.06412 7.74012,-16.69349 4.59273,-4.14078 8.67696,-5.26472 16.71031,-4.59854 20.90426,1.73355 25.41817,31.04737 6.29549,40.88361 -4.59923,2.36574 -14.0243,2.49434 -18.28984,0.24957 z m 13.04539,-4.4569 c 5.44752,-1.3717 11.03765,-7.14474 12.02749,-12.42105 2.04411,-10.89604 -8.19636,-20.93767 -19.23953,-18.86596 -4.57427,0.85814 -10.86351,6.44911 -12.36196,10.98946 -2.60262,7.88601 2.19855,16.96572 10.52861,19.91115 4.93208,1.74394 3.83949,1.69726 9.04539,0.3864 z M 215.25,150.7264 209,147.57287 v -7.28644 C 209,136.2789 209.23783,133 209.52852,133 c 0.29068,0 3.21568,1.35648 6.5,3.0144 L 222,139.02879 v 7.48561 c 0,4.11708 -0.1125,7.45859 -0.25,7.42557 -0.1375,-0.033 -3.0625,-1.47912 -6.5,-3.21357 z M 220,145.5 c 0,-1.925 -0.47235,-3.5 -1.04966,-3.5 -1.2554,0 -6.95034,2.86269 -6.95034,3.49374 0,0.67943 5.33889,3.42102 6.75,3.46622 0.76953,0.0247 1.25,-1.30527 1.25,-3.45996 z M 28.6875,129.35417 C 28.309375,128.97604 28,124.32994 28,119.0295 v -9.63717 L 24.5,106 c -3.599879,-3.48914 -4.509779,-6 -2.174314,-6 0.729127,0 2.382569,1.125 3.674314,2.5 3.41728,3.63753 11.262423,3.58083 15.114021,-0.10924 4.632245,-4.437972 5.433861,-1.7088 0.93246,3.17464 L 38,109.95531 v 10.02235 C 38,128.21974 37.733556,130 36.5,130 c -1.151515,0 -1.5,-1.27778 -1.5,-5.5 0,-4.13398 -0.35957,-5.5 -1.44774,-5.5 -1.038054,0 -1.533275,1.46342 -1.75,5.1714 -0.281205,4.81117 -1.484369,6.81316 -3.11476,5.18277 z M 94.664788,121.25 c -0.984184,-1.62856 -5.973585,-27.274536 -5.414923,-27.833199 0.327799,-0.327798 3.305987,1.244323 6.618197,3.493601 C 99.180271,99.159681 102.08468,101 102.32229,101 c 0.23762,0 0.21634,-1.913651 -0.0473,-4.252557 -0.65163,-5.781234 1.25642,-7.289659 12.31268,-9.733892 15.16173,-3.351838 15.72528,-3.063116 18.46158,9.458394 2.41997,11.073955 2.45566,14.761135 0.16298,16.835975 -0.98326,0.88985 -6.37163,2.59397 -11.97415,3.78693 -9.42698,2.00733 -10.36823,2.0499 -12.62535,0.57098 -1.34142,-0.87893 -2.7388,-2.96331 -3.1053,-4.63195 C 105.14095,111.36525 104.49081,110 104.06268,110 c -0.42812,0 -2.44494,2.7 -4.481818,6 -3.810046,6.17276 -4.14333,6.52868 -4.916074,5.25 z M 30.2,102.8 c -1.542501,-1.5425 -1.542501,-5.057499 0,-6.6 1.83712,-1.83712 5.607686,-1.42786 6.764816,0.734259 1.406399,2.627879 1.306485,3.651581 -0.536245,5.494311 -1.871519,1.87152 -4.567698,2.0323 -6.228571,0.37143 z m 182.36631,-5.381708 c -2.16352,-0.792431 -4.63852,-2.050505 -5.5,-2.795719 C 206.20484,93.877358 202.575,92.981003 199,92.630673 180.36709,90.804749 172.57261,76.100746 185.24895,66.689796 198.58258,56.790867 222,63.73147 222,77.582306 c 0,3.184531 -3.39853,9.025432 -6.08938,10.465527 -2.56566,1.373099 -2.40571,3.210341 0.58938,6.769798 3.9188,4.657231 3.12111,5.184609 -3.93369,2.600661 z m -0.52488,-5.809319 c -0.92041,-2.420874 -0.59834,-3.067179 3.47202,-6.967271 5.07059,-4.858475 5.5641,-7.362029 2.45614,-12.459731 -6.08498,-9.980618 -28.8542,-9.980618 -34.93918,0 -2.71478,4.452806 -2.55337,7.043076 0.67822,10.883602 3.60485,4.284126 9.6252,6.885583 15.99696,6.912465 3.88481,0.01639 6.1444,0.659054 8.9057,2.532926 2.03507,1.38103 3.86764,2.34344 4.07239,2.138688 0.20475,-0.204751 -0.0843,-1.573057 -0.64225,-3.040679 z M 52.617833,68.845937 C 51.58264,68.244651 48.29084,67.644034 45.30272,67.511233 39.494497,67.253096 35.171354,65 40.484276,65 c 7.295564,0 15.503428,-6.994371 15.511986,-13.218615 0.0048,-3.512645 2.350817,-2.771888 4.025461,1.271059 1.546458,3.733481 0.580583,7.484855 -2.713065,10.537305 -2.53227,2.346829 -2.556367,2.479054 -0.804569,4.41477 1.744525,1.927678 1.741158,1.994448 -0.0991,1.965072 -1.047744,-0.01672 -2.751963,-0.522369 -3.787155,-1.123654 z M 25,64.328741 c 0,-0.369193 0.695167,-1.439411 1.544816,-2.378262 1.409468,-1.557444 1.278046,-1.97377 -1.5,-4.751817 C 15.151359,47.305205 32.189152,34.954231 46.006402,42.003266 50.562924,44.32783 52,46.544227 52,51.247167 52,57.045976 45.115502,62 37.057024,62 34.959997,62 31.628746,62.675 29.654243,63.5 25.631522,65.1808 25,65.29325 25,64.328741 Z M 45.555315,57.735269 C 57.738874,51.413718 44.708988,37.991805 31.3151,43.066612 c -7.677138,2.908789 -9.344219,8.474458 -4.06601,13.574664 2.989727,2.888901 3.732959,3.122716 9.25091,2.910273 3.3,-0.127051 7.374892,-0.944377 9.055315,-1.81628 z m 95.758505,-3.685496 c -1.7524,-1.068513 -3.6649,-2.837248 -4.25,-3.930521 -1.70421,-3.184355 -1.29108,-7.960376 0.80163,-9.267297 1.026,-0.640746 1.67331,-1.899754 1.43846,-2.797795 -0.40039,-1.53109 3.13803,-5.73277 4.55108,-5.40416 0.35475,0.0825 0.4676,-0.3675 0.25077,-1 -0.21683,-0.6325 -1.08325,-3.530004 -1.92539,-6.438897 -1.39612,-4.822489 -1.38783,-5.432217 0.094,-6.914097 2.20575,-2.205744 4.10097,-0.551665 6.33824,5.531763 0.94485,2.569177 2.06987,5.075068 2.50004,5.568647 0.43017,0.493578 1.90849,-1.649487 3.28516,-4.762367 2.58373,-5.842283 4.88139,-7.755795 6.89499,-5.742203 0.87788,0.877881 0.73207,2.783911 -0.60209,7.8707 -1.57504,6.005182 -1.59917,6.830256 -0.22909,7.832087 4.20909,3.077759 2.49994,13.474863 -3.01041,18.31302 -2.87266,2.522226 -4.38893,3.090659 -8.23606,3.087609 -2.90318,-0.0023 -5.93963,-0.750324 -7.90138,-1.946489 z M 155.5863,52.3515 C 158.98492,50.124637 161,45.930976 161,41.084844 161,36.350819 159.46292,35.197466 151.97137,34.310203 147.76534,33.812062 147,33.977597 147,35.38546 c 0,1.932436 3.74997,3.589055 8.3151,3.673347 2.89168,0.05339 3.00618,0.168476 1.24368,1.25 -4.83923,2.969512 -6.79592,5.755491 -6.18558,8.807192 0.3688,1.844005 0.22052,2.750939 -0.38826,2.374695 C 149.44322,51.155893 149,50.233524 149,49.440983 c 0,-1.868871 -1.42323,-1.840873 -3,0.05902 -0.68469,0.825 -1.63979,1.5 -2.12244,1.5 -1.33931,0 -4.88153,-3.836629 -4.84715,-5.25 0.0169,-0.69372 0.48401,-0.471208 1.04969,0.5 0.98912,1.698224 4.95359,2.509512 4.88663,1 -0.0667,-1.503799 -3.8272,-5.25 -5.27003,-5.25 -3.80566,0 -2.60604,6.35295 1.86348,9.868677 3.32885,2.618475 10.39544,2.86173 14.02612,0.482823 z M 149,44.460162 c 0,-0.296911 -0.90915,-2.321911 -2.02032,-4.5 C 145.65347,37.360574 144.2792,36 142.97968,36 c -2.52618,0 -2.50047,1.421271 0.10188,5.631966 1.19298,1.930287 2.9005,3.368034 4,3.368034 C 148.1367,45 149,44.757073 149,44.460162 Z M 151.5,41 c -0.33992,-0.55 -1.04148,-1 -1.55902,-1 C 149.42344,40 149,40.45 149,41 c 0,0.55 0.70156,1 1.55902,1 0.85746,0 1.2809,-0.45 0.94098,-1 z m 7.33746,-13.984702 c 1.29878,-3.845909 1.65783,-6.209194 1.00467,-6.612868 -1.53669,-0.949727 -2.6024,0.587688 -4.76548,6.87478 C 153.17345,32.808952 153.16963,33 154.96206,33 c 1.37408,0 2.37777,-1.549984 3.8754,-5.984702 z m -11.11745,-1.18884 c -2.63892,-7.338463 -5.32618,-9.267706 -4.47074,-3.209635 C 144.1228,28.803079 145.72276,32 147.94526,32 c 1.96868,0 1.96574,-0.08069 -0.22525,-6.173542 z M 81,43.559017 c 0,-0.792541 0.402847,-1.689956 0.895215,-1.994256 1.029416,-0.636215 2.270652,1.936039 1.369217,2.837473 C 82.191409,45.475257 81,45.031607 81,43.559017 Z m 7,-2.031385 c 0,-1.99567 1.684051,-2.793365 2.332073,-1.104647 0.297903,0.776323 -0.104944,1.659616 -0.895215,1.962871 C 88.606502,42.704494 88,42.342235 88,41.527632 Z M 208.98983,39.75 C 203.20274,35.81134 201.5,32.59421 201.5,25.598827 c 0,-5.250617 0.43233,-6.821332 2.69355,-9.785942 7.51929,-9.8582869 22.26454,-8.67593 27.82909,2.231492 4.30409,8.436724 1.16293,18.187777 -7.27264,22.576317 L 222,42.05136 V 37.52568 C 222,34.271795 222.40113,33 223.42742,33 c 3.63662,0 7.45753,-9.717005 4.5319,-11.52514 -0.57237,-0.353746 -0.80764,-1.392803 -0.52283,-2.309017 0.84093,-2.705145 -0.85564,-4.547072 -3.08786,-3.352422 -2.44264,1.307258 -11.22791,1.321556 -13.65573,0.02223 -2.74393,-1.468506 -2.79813,-1.365502 -4.3024,8.175812 -0.41906,2.658006 -0.0301,4.177053 1.60052,6.25 C 209.1758,31.767656 210.7875,33 211.57258,33 c 1.67635,0 1.89729,1.59157 0.35339,2.545752 -0.59071,0.365082 -2.13355,-0.331583 -3.42852,-1.548144 -1.29497,-1.216561 -2.79999,-2.051207 -3.3445,-1.854769 -1.63444,0.589644 3.32881,5.942421 5.67376,6.119061 1.3593,0.102392 2.17329,0.833093 2.17329,1.950904 0,2.249527 -0.03,2.246063 -4.01017,-0.462804 z m -114.441987,-1 C 94.33368,38.0625 93.750056,36.15 93.2509,34.5 92.133603,30.806682 88,29.590588 88,32.9552 c 0,1.99647 -1.068697,2.709477 -6.67919,4.456183 -1.926472,0.599766 -2.338691,0.122383 -3.554565,-4.116469 -1.403262,-4.89214 -0.609852,-6.830874 1.573512,-3.844947 1.585196,2.167886 4.942329,1.014167 4.166038,-1.431709 -0.43884,-1.382662 0.391308,-2.009509 3.998875,-3.019566 2.503976,-0.701069 4.70043,-1.100077 4.88101,-0.886682 C 93.032287,24.876118 97,37.414875 97,38.694172 97,40.360281 95.063198,40.404376 94.547843,38.75 Z m 7.187187,-1.431826 c -1.6602,-2.906915 -4.803824,-14.636238 -4.096141,-15.283302 1.115708,-1.020139 14.371601,-5.357712 14.865161,-4.864154 0.20696,0.206961 1.47445,3.834418 2.81665,8.061015 l 2.44035,7.684723 -6.63052,2.188096 c -3.64679,1.203453 -7.14751,2.377929 -7.77938,2.609946 -0.63187,0.232017 -1.35912,0.05367 -1.61612,-0.396324 z m 7.36575,-4.454655 c 4.8975,-1.637409 5.10984,-2.047328 3.73099,-7.202695 -1.35573,-5.068923 -2.19604,-5.442262 -7.93255,-3.524343 -4.913283,1.642685 -5.074704,1.992223 -3.31077,7.169075 1.71591,5.035921 2.28524,5.305565 7.51233,3.557963 z M 106,27.416667 c 0,-1.765927 2.15276,-1.45839 2.77083,0.395833 C 108.98854,28.465625 108.45417,29 107.58333,29 106.7125,29 106,28.2875 106,27.416667 Z M 74.479439,22.75 C 72.718717,17.942349 70,9.5568556 70,8.933814 70,8.2402722 85.123144,2.7161276 85.534298,3.259484 c 0.100099,0.1322838 1.347651,3.7510342 2.772338,8.041668 1.867428,5.624001 2.255867,7.923395 1.391853,8.239176 C 84.51555,21.434593 76.527446,24 75.812065,24 75.330906,24 74.731224,23.4375 74.479439,22.75 Z M 86.88799,17.383823 C 87.514029,16.85705 84.810217,8.0007416 83.840357,7.4013353 83.353445,7.1004069 80.698124,7.6038271 77.939645,8.5200468 72.485164,10.331734 72.504628,10.256772 75.552921,17.712086 l 1.313343,3.212086 4.816868,-1.60694 c 2.649277,-0.883817 4.991464,-1.753851 5.204858,-1.933409 z M 79,13.416667 C 79,11.65074 81.152759,11.958277 81.770833,13.8125 81.988542,14.465625 81.454167,15 80.583333,15 79.7125,15 79,14.2875 79,13.416667 Z M 92.695977,9.6772652 C 91.242117,5.2425085 90.266282,1.4003846 90.527454,1.1392123 90.788627,0.87803995 93.589293,0.51640122 96.751157,0.33557067 L 102.5,0.00678786 98.25,1.5867273 C 95.9125,2.4556939 94,3.7370162 94,4.4341101 94,6.0197177 96.058556,12.255888 96.89713,13.21065 97.42413,13.810667 108,11.326712 108,10.602918 c 0,-0.135652 -0.72561,-2.3761917 -1.61247,-4.9789768 -1.54796,-4.5430215 -1.30033,-7.0169297 0.50622,-5.05727453 1.23169,1.33608363 4.41038,11.46253333 3.79215,12.08076833 -0.28483,0.284829 -3.85432,1.54728 -7.93221,2.805448 l -7.414331,2.287576 z M 99.63948,8.3061468 C 98.513296,7.1799629 98.95359,6 100.5,6 c 0.825,0 1.5,0.4234424 1.5,0.940983 0,1.2609777 -1.56159,2.1640945 -2.36052,1.3651638 z"
       id="path1895" />
    <path
       style="fill:#939393;fill-opacity:1"
       id="path1007"
       d="" />
  </g>
</svg>
