<?xml version="1.0" encoding="UTF-8" standalone="no"?>
<!-- Created with Inkscape (http://www.inkscape.org/) -->

<svg
   version="1.1"
   id="svg2"
   width="618.00562"
   height="679.80951"
   viewBox="0 0 618.00562 679.80951"
   xmlns="http://www.w3.org/2000/svg"
   xmlns:svg="http://www.w3.org/2000/svg">
  <defs
     id="defs6" />
  <g
     id="g8"
     transform="translate(-38.450577,-22.83526)">
    <path
       style="fill:#000000;stroke-width:1.33333"
       d="m 461.78392,700.87046 c -20.3503,-3.24517 -33.2218,-7.44608 -52,-16.97136 -44.26814,-22.45509 -75.87026,-62.80139 -88.27362,-112.69857 -3.14356,-12.64612 -3.5802,-17.07785 -3.64864,-37.03193 -0.0587,-17.12086 0.51615,-25.43957 2.3496,-34 12.89565,-60.21025 54.30436,-107.60841 111.57266,-127.7108 19.78757,-6.94587 31.72977,-8.85752 55.33333,-8.85752 23.63582,0 35.61691,1.92213 55.33334,8.87712 25.72251,9.07365 43.45904,20.32921 63.46217,40.27296 25.75043,25.67396 40.4853,52.5094 47.99985,87.41824 3.36445,15.62956 3.39718,49.5588 0.0627,65.02425 -9.27474,43.01706 -32.29369,79.0954 -66.77879,104.66453 -12.72676,9.43632 -38.8813,22.48207 -52.74596,26.3094 -23.35787,6.44794 -50.6502,8.21456 -72.66667,4.70368 z m 59.91781,-45.30301 c 34.86975,-10.33622 63.60898,-34.46666 79.47767,-66.73218 10.05512,-20.44489 12.34476,-30.60469 12.47007,-55.33333 0.0893,-17.64376 -0.34565,-22.32439 -2.97435,-32 -12.26297,-45.13721 -46.93528,-79.96593 -91.84616,-92.26054 -15.136,-4.14356 -48.52509,-4.16151 -63.42341,-0.0341 -44.32294,12.27921 -77.63171,44.87952 -91.18295,89.24352 -3.27502,10.72171 -3.58211,13.64451 -3.61279,34.38443 -0.0311,21.00129 0.23569,23.54061 3.63056,34.56144 13.15013,42.68957 44.89745,75.04701 85.75655,87.40463 15.03748,4.548 21.17832,5.25933 41.12033,4.76321 15.39043,-0.38288 20.7584,-1.08442 30.58448,-3.9971 z M 466.45059,500.83527 V 448.1686 h 20.64253 20.64253 l 0.35747,31.66667 0.35747,31.66667 31.66666,0.35746 31.66667,0.35747 v 20.64253 20.64254 H 519.11725 466.45059 Z M 55.431347,557.81674 38.450577,540.79819 v -71.93567 -71.93565 l 6.28321,-6.37914 6.28321,-6.37913 -6.28321,-6.37913 -6.28321,-6.37914 v -72.26007 -72.26008 l 6,-5.5306 c 3.3,-3.04184 6,-6.22927 6,-7.08319 0,-0.85392 -2.7,-4.20242 -6,-7.44113 l -6,-5.88856 V 128.87174 56.796782 L 55.469117,39.816023 72.487657,22.83526 H 315.20166 557.91567 l 16.93413,17.114583 16.93412,17.114579 v 71.935538 71.93554 l -6.67077,6.57047 -6.67076,6.57046 6.67076,6.75467 6.67077,6.75468 v 46.29142 46.2914 h -21.33333 -21.33333 v -38.13334 -38.13333 l -4.53334,-4.53334 -4.53333,-4.53333 H 314.84547 89.640353 l -4.26155,4.39681 -4.261556,4.3968 v 55.34165 55.34164 l 4.396806,4.26154 4.39681,4.26156 h 90.936527 90.93652 v 21.33334 21.33333 H 180.71214 89.640353 l -4.26155,4.39682 -4.261556,4.3968 v 55.34164 55.34164 l 4.396806,4.26155 4.39681,4.26156 h 90.936527 90.93652 v 20.66666 20.66667 H 172.098 72.412107 Z m 488.629693,-369.25208 5.05622,-4.93727 V 128.96147 74.295542 l -4.26156,-4.39681 -4.26155,-4.3968 H 315.2525 89.910863 l -4.39681,4.26155 -4.396806,4.26156 v 55.600318 55.60033 l 4.713056,4.13812 4.71306,4.13812 H 314.77409 539.00481 Z m -398.9438,-59.02888 v -21.36719 h 21.36719 21.3672 l -0.3672,21 -0.36719,21 -21,0.36719 -21,0.36719 z m 0,340.00001 V 448.1686 h 21.36719 21.3672 l -0.3672,21 -0.36719,21 -21,0.36719 -21,0.3672 z m 0,-170.73438 v -21.3672 l 21,0.3672 21,0.36719 0.36719,21 0.3672,21 h -21.3672 -21.36719 z"
       id="path845" />
  </g>
</svg>
